<?xml version="1.0" standalone="no"?>
<!DOCTYPE svg PUBLIC "-//W3C//DTD SVG 20010904//EN"
 "http://www.w3.org/TR/2001/REC-SVG-20010904/DTD/svg10.dtd">
<svg version="1.0" xmlns="http://www.w3.org/2000/svg"
 width="3282.000000pt" height="3282.000000pt" viewBox="0 0 3282.000000 3282.000000"
 preserveAspectRatio="xMidYMid meet">
<metadata>
Created by potrace 1.14, written by Peter Selinger 2001-2017
</metadata>
<g transform="translate(0.000000,3282.000000) scale(0.100000,-0.100000)"
fill="#000000" stroke="none">
<path d="M28658 23194 c-5 -4 -157 -40 -213 -50 -16 -3 -52 -12 -80 -19 -27
-7 -86 -21 -130 -31 -44 -10 -82 -18 -85 -19 -13 -3 -117 -26 -135 -29 -11 -2
-49 -12 -85 -21 -36 -9 -74 -19 -85 -21 -11 -2 -38 -8 -60 -13 -90 -22 -181
-43 -203 -47 -12 -3 -62 -14 -110 -25 -100 -24 -88 -21 -211 -49 -52 -11 -97
-23 -100 -24 -3 -2 -24 -7 -45 -10 -21 -4 -75 -15 -120 -26 -45 -11 -90 -22
-101 -25 -11 -2 -90 -20 -175 -40 -85 -20 -164 -38 -175 -40 -11 -3 -78 -18
-150 -35 -71 -17 -142 -33 -158 -35 -15 -2 -31 -6 -36 -9 -4 -3 -22 -8 -39
-11 -37 -6 -185 -40 -262 -59 -30 -8 -66 -17 -80 -20 l-26 -5 1 -151 c0 -82
-1 -150 -3 -150 -2 0 -54 38 -116 84 -120 91 -178 116 -271 116 -40 0 -350
-64 -510 -105 -27 -7 -275 -65 -300 -71 -11 -2 -33 -7 -50 -11 -16 -4 -32 -7
-35 -8 -3 -1 -18 -4 -35 -8 -16 -4 -39 -9 -50 -11 -11 -2 -47 -11 -80 -19 -33
-8 -96 -22 -140 -32 -44 -9 -93 -21 -110 -26 -16 -4 -41 -10 -55 -13 -14 -2
-45 -9 -70 -16 -25 -7 -54 -14 -65 -16 -11 -2 -70 -15 -130 -29 -61 -14 -121
-28 -135 -31 -91 -19 -204 -45 -210 -49 -4 -2 -22 -7 -40 -10 -18 -3 -157 -35
-309 -70 -283 -66 -294 -68 -371 -84 -25 -5 -57 -14 -71 -20 -15 -5 -29 -8
-31 -5 -3 2 -25 -3 -49 -11 -37 -13 -44 -19 -45 -43 0 -15 -4 -67 -8 -117 -4
-49 -9 -121 -12 -160 -3 -38 -7 -75 -9 -82 -3 -9 30 -41 77 -73 8 -6 -4 -62
-24 -113 -6 -16 -14 -24 -17 -19 -6 8 -76 63 -201 157 -36 27 -67 52 -70 55
-3 3 -39 30 -80 62 -41 31 -86 66 -100 78 -53 48 -127 73 -214 73 -44 0 -92
-3 -106 -6 -14 -3 -126 -29 -250 -57 -124 -29 -252 -59 -285 -66 -33 -8 -139
-32 -235 -54 -96 -22 -185 -43 -198 -46 -13 -2 -83 -18 -155 -35 -168 -40
-295 -69 -327 -75 -13 -3 -63 -14 -110 -25 -47 -11 -92 -22 -100 -24 -8 -2
-53 -12 -100 -23 -112 -27 -389 -91 -417 -97 -13 -3 -31 -7 -40 -9 -10 -2 -61
-14 -113 -26 -286 -66 -263 -57 -275 -117 -3 -18 -12 -48 -21 -68 l-14 -35
-68 55 c-37 30 -75 55 -84 55 -10 0 -57 -9 -105 -21 -48 -11 -96 -22 -105 -24
-9 -2 -97 -22 -195 -45 -98 -23 -185 -43 -193 -45 -37 -8 -389 -90 -525 -121
-82 -20 -161 -38 -174 -40 -60 -12 -143 -33 -148 -37 -2 -3 0 -13 6 -24 14
-23 111 -233 111 -239 0 -2 -28 17 -62 42 -113 83 -240 126 -373 126 -99 0
-116 -3 -395 -67 -415 -95 -785 -181 -885 -205 -44 -10 -102 -24 -130 -30 -27
-7 -57 -13 -65 -15 -8 -2 -44 -10 -80 -18 -55 -12 -206 -47 -275 -63 -11 -3
-30 -7 -43 -10 -12 -2 -62 -14 -110 -25 -48 -12 -98 -23 -112 -25 -14 -3 -34
-8 -45 -11 -11 -4 -24 -8 -30 -9 -85 -15 -164 -38 -167 -47 -3 -7 -4 -74 -3
-149 0 -76 -3 -138 -7 -138 -4 0 -54 35 -110 79 -171 131 -223 138 -495 76
-11 -3 -119 -28 -240 -56 -120 -28 -227 -53 -238 -55 -11 -2 -56 -12 -100 -22
l-80 -18 -3 -177 -2 -177 -108 82 c-59 45 -137 106 -174 135 l-67 53 -153 -35
c-84 -19 -202 -46 -263 -60 -60 -14 -150 -35 -200 -46 -49 -11 -99 -22 -110
-25 -11 -3 -29 -7 -40 -9 -11 -3 -29 -7 -40 -10 -11 -2 -60 -14 -110 -25 -49
-12 -99 -23 -110 -26 -11 -3 -31 -7 -45 -10 -61 -13 -312 -73 -315 -76 -2 -2
-6 -23 -9 -48 -3 -25 -9 -58 -11 -75 -15 -81 -25 -144 -30 -185 -3 -25 -8 -58
-11 -73 -5 -23 0 -34 26 -57 18 -16 37 -31 41 -32 12 -4 -5 -55 -111 -338 -51
-135 -95 -255 -97 -267 -3 -13 -10 -23 -16 -23 -8 0 -128 87 -184 135 -7 5
-23 18 -35 27 -13 10 -57 44 -98 76 -41 32 -151 116 -245 187 -190 145 -181
138 -215 167 -118 99 -267 146 -456 142 -124 -2 -197 -12 -328 -44 -95 -24
-106 -24 -131 -5 -11 9 -56 43 -100 76 -44 33 -93 71 -110 84 -104 81 -229
176 -280 215 -33 25 -62 47 -65 50 -3 3 -81 64 -175 136 -170 130 -310 237
-396 304 -25 19 -60 46 -79 60 -18 14 -88 68 -156 120 -67 52 -164 127 -214
165 -51 39 -97 75 -104 80 -6 6 -27 22 -46 35 -19 13 -37 27 -40 30 -15 18
-176 133 -240 171 -125 75 -293 145 -395 165 -11 2 -40 8 -65 13 -181 40 -492
48 -741 18 -646 -78 -1328 -394 -1769 -820 -331 -321 -531 -666 -611 -1056
-26 -125 -31 -361 -10 -451 7 -30 15 -66 17 -80 3 -14 20 -59 38 -101 l32 -76
-45 13 c-242 70 -616 38 -971 -82 -93 -32 -334 -143 -415 -191 -210 -126 -426
-323 -623 -569 -106 -132 -241 -370 -317 -559 -38 -92 -111 -321 -121 -378 -3
-18 -9 -50 -14 -72 -5 -22 -12 -62 -16 -90 -3 -27 -8 -59 -11 -70 -3 -11 -6
-108 -8 -215 -3 -209 11 -326 55 -474 64 -212 225 -443 427 -611 78 -65 68
-57 198 -155 55 -41 102 -78 105 -81 3 -3 69 -54 148 -115 79 -60 199 -152
267 -204 68 -52 191 -147 274 -210 l149 -115 -118 -28 -119 -29 -31 -86 c-18
-48 -49 -134 -70 -192 -21 -58 -97 -268 -169 -466 -117 -322 -131 -369 -131
-426 l0 -64 214 -164 c197 -151 212 -166 188 -171 -15 -4 -73 -17 -130 -30
l-102 -23 0 -192 0 -192 58 -43 c31 -24 62 -48 68 -54 7 -5 46 -36 88 -68 l76
-58 0 -232 0 -233 78 -59 c42 -33 84 -65 92 -72 8 -7 89 -69 180 -138 91 -69
179 -137 195 -149 44 -35 554 -428 670 -516 139 -107 176 -135 396 -305 107
-82 232 -178 279 -214 47 -36 110 -84 140 -107 l55 -43 60 15 c33 8 121 28
195 45 74 17 140 35 145 40 6 6 10 55 11 109 0 95 7 126 22 104 4 -5 36 -32
72 -59 36 -27 67 -52 70 -55 3 -3 19 -16 36 -28 l32 -22 83 20 c46 11 138 32
204 48 l120 27 3 142 3 143 62 -46 c34 -25 75 -57 92 -70 16 -13 53 -42 80
-63 l50 -39 120 28 c66 15 158 36 204 47 60 13 85 23 89 35 3 13 8 15 22 6 14
-9 67 0 241 40 571 132 793 183 798 187 4 2 6 90 6 195 0 159 -3 193 -15 200
-47 27 -160 124 -161 138 0 9 0 47 1 84 1 54 -2 68 -17 77 -10 6 -16 11 -13
12 141 31 145 33 148 67 l3 33 37 -27 c20 -16 39 -30 42 -33 3 -4 61 -49 130
-101 69 -52 132 -100 140 -107 8 -7 42 -32 75 -57 33 -25 65 -49 70 -54 6 -4
60 -46 120 -92 61 -47 116 -90 123 -97 7 -7 26 -20 42 -30 17 -9 30 -21 30
-25 0 -10 10 -8 160 27 63 15 140 33 170 40 238 54 381 88 412 96 l37 9 -1
133 0 132 -50 40 -49 39 3 63 c2 35 4 63 6 63 2 0 83 -62 180 -137 97 -75 202
-151 232 -168 53 -29 60 -30 165 -28 99 1 137 7 322 48 11 3 119 28 240 56
120 28 229 53 243 55 14 3 33 7 42 10 9 3 25 7 35 9 333 72 548 128 546 143
-4 15 9 16 24 1 9 -9 39 -5 120 14 132 32 240 57 273 63 14 3 31 7 39 9 7 3
84 21 170 40 126 28 277 63 474 110 9 2 20 6 25 9 6 3 9 243 3 266 0 3 -23 22
-50 42 -41 31 -48 41 -45 65 2 15 6 52 9 81 4 29 8 61 10 72 2 10 7 40 11 67
3 26 8 57 10 68 2 11 7 43 10 70 11 87 13 89 60 52 23 -18 56 -43 74 -57 18
-14 119 -92 224 -173 274 -213 286 -222 339 -251 86 -47 220 -77 347 -77 100
0 157 8 267 37 257 68 465 179 612 324 l70 69 105 -80 105 -80 178 41 c98 22
189 43 203 47 14 3 32 7 40 9 8 2 53 12 100 23 121 29 391 92 415 97 11 2 99
22 195 44 228 54 429 100 458 106 12 2 62 14 110 25 48 12 94 22 102 24 8 2
74 17 145 34 72 17 139 32 150 34 74 15 83 20 80 37 -2 10 -6 67 -10 127 l-6
108 -48 42 -47 43 8 67 c16 138 2 135 141 28 67 -52 127 -98 132 -103 6 -4 48
-37 95 -72 47 -36 92 -70 100 -77 83 -68 92 -73 129 -67 20 3 39 8 42 10 3 2
19 6 35 8 37 7 28 5 309 71 132 30 249 57 260 59 11 2 59 13 107 25 48 11 98
23 110 25 13 3 68 16 123 28 115 27 103 3 91 183 -8 106 -12 114 -83 162 -17
12 -21 22 -18 54 5 51 16 136 21 163 2 12 7 41 10 66 3 25 8 54 10 65 2 11 6
34 9 50 3 17 7 44 10 60 3 17 8 49 11 71 7 57 13 86 18 91 3 3 31 -16 63 -41
32 -25 63 -50 68 -54 107 -83 184 -142 209 -160 17 -12 45 -34 62 -47 18 -14
96 -75 175 -136 79 -60 151 -116 159 -122 8 -7 33 -26 55 -42 22 -16 42 -32
45 -35 3 -3 30 -24 60 -47 l55 -41 105 24 c58 13 114 26 125 28 11 3 34 8 50
11 26 5 187 43 265 62 14 3 32 7 40 8 8 1 33 7 55 13 35 10 309 74 373 87 100
21 113 27 108 44 -4 13 -16 161 -19 230 0 7 -22 30 -47 50 l-48 38 4 59 c3 32
11 97 19 144 8 47 17 105 21 130 3 25 8 54 10 65 4 26 12 76 19 128 3 23 8 49
10 57 2 8 7 40 10 70 4 30 10 73 15 95 5 22 11 60 14 85 9 69 15 93 24 102 7
7 379 -270 667 -497 17 -12 57 -44 90 -69 33 -25 69 -53 80 -61 11 -9 33 -26
49 -38 16 -12 112 -86 213 -164 101 -78 189 -140 196 -138 13 5 436 103 477
111 14 3 70 16 125 29 55 13 172 40 260 60 88 20 179 41 202 47 l43 10 -6 67
c-11 124 -12 136 -13 166 -1 25 -11 39 -51 69 -39 30 -49 43 -45 60 3 11 7 44
10 71 3 28 7 61 9 75 2 14 7 51 11 83 4 31 10 59 14 62 6 3 297 -216 626 -473
28 -21 57 -38 65 -36 8 2 29 5 45 8 17 3 46 10 65 16 33 9 320 76 365 84 11 2
38 9 60 15 22 5 54 13 70 16 17 3 131 29 255 58 212 49 225 53 224 74 -1 22
-1 23 24 4 22 -16 30 -17 71 -5 56 15 419 100 466 108 11 2 38 9 60 14 22 6
51 13 65 16 57 10 112 25 118 31 3 3 7 66 7 140 1 125 0 134 -20 145 -33 18
-84 57 -80 62 3 2 5 28 6 57 2 39 6 51 16 47 13 -5 306 -229 332 -254 21 -20
85 -51 122 -58 39 -7 154 -7 202 1 101 17 163 29 262 52 61 13 117 26 126 28
9 2 34 8 55 15 22 6 62 15 89 20 28 5 118 25 200 45 83 19 166 38 185 41 19 3
38 8 42 11 5 2 16 6 25 8 57 11 338 75 443 100 30 7 105 25 165 38 61 14 220
51 355 82 135 32 268 62 295 69 28 6 50 16 51 21 1 14 13 97 30 195 7 47 16
105 19 130 3 25 9 62 13 83 l7 39 70 -54 c39 -29 72 -55 75 -58 19 -20 143
-111 180 -132 79 -45 138 -59 260 -58 177 1 391 61 593 166 156 82 351 253
446 392 79 117 139 259 166 396 16 82 18 218 4 271 -4 16 -10 43 -13 59 -9 53
-81 189 -143 271 -34 44 -96 112 -138 150 -43 39 -99 90 -124 114 l-46 43 54
-41 c29 -22 57 -41 61 -41 5 0 34 46 65 102 124 222 267 411 451 599 l95 96
-37 113 c-39 117 -41 120 -94 160 -18 14 -88 68 -156 120 -67 52 -173 133
-234 180 -62 47 -117 90 -123 95 -7 6 -29 23 -49 38 -21 15 -38 32 -38 36 0 5
19 12 43 16 23 4 47 9 52 11 6 1 65 15 132 31 l122 28 7 40 c3 22 8 47 9 55 6
33 16 97 20 125 2 17 10 68 19 115 8 47 18 105 21 130 3 25 8 52 10 60 2 8 7
35 10 60 11 80 17 115 20 120 2 3 7 33 10 65 4 33 9 63 11 66 2 4 6 27 9 50 7
52 18 120 29 174 2 12 7 46 11 76 7 55 6 57 -27 80 -31 22 -309 236 -372 286
-15 12 -25 26 -23 30 3 4 8 33 12 63 3 30 10 71 15 90 5 19 11 53 14 75 6 47
13 94 31 195 l13 74 -27 24 c-14 13 -37 31 -51 40 -26 17 -241 182 -250 192
-3 3 -23 18 -44 35 l-40 29 50 13 c27 7 54 13 60 13 6 0 76 -50 155 -111 119
-92 148 -109 169 -105 14 4 35 9 48 11 13 3 83 19 155 36 73 17 143 33 157 36
25 4 35 10 36 21 0 4 3 25 7 47 4 22 10 57 13 79 3 21 8 48 10 60 8 41 34 191
38 226 3 19 8 46 10 60 3 13 8 40 11 60 3 20 7 45 9 57 3 11 7 38 10 59 11 66
36 218 42 244 4 22 -10 37 -132 130 -156 120 -255 196 -269 208 -5 4 -48 37
-95 73 -47 36 -184 142 -305 235 -121 93 -255 196 -298 229 -43 33 -127 97
-185 142 -59 46 -156 121 -217 167 -60 46 -141 108 -180 138 -38 30 -119 92
-180 138 -60 46 -112 86 -115 89 -3 4 -23 20 -45 37 -42 32 -70 46 -77 38z
m1323 -6311 c13 -16 12 -17 -3 -4 -17 13 -22 21 -14 21 2 0 10 -8 17 -17z"/>
</g>
</svg>
